<mxfile host="app.diagrams.net" modified="2023-01-11T02:02:54.521Z" agent="5.0 (Windows NT 10.0; Win64; x64) AppleWebKit/537.36 (KHTML, like Gecko) Chrome/108.0.0.0 Safari/537.36" version="20.8.3" etag="Ku64dISVsWOaCPOE-NuN" type="github">
  <diagram id="-4toW2RNmc1USjAJMxSq" name="Page-1">
    <mxGraphModel dx="1050" dy="623" grid="1" gridSize="10" guides="1" tooltips="1" connect="1" arrows="1" fold="1" page="1" pageScale="1" pageWidth="850" pageHeight="1100" math="0" shadow="0">
      <root>
        <mxCell id="0" />
        <mxCell id="1" parent="0" />
        <mxCell id="TrK0giv81t1PPJtYDJ1d-1" value="" style="points=[[0.35,0,0],[0.98,0.51,0],[1,0.71,0],[0.67,1,0],[0,0.795,0],[0,0.65,0]];verticalLabelPosition=bottom;sketch=0;html=1;verticalAlign=top;aspect=fixed;align=center;pointerEvents=1;shape=mxgraph.cisco19.user;fillColor=#005073;strokeColor=none;" vertex="1" parent="1">
          <mxGeometry x="230" y="120" width="50" height="50" as="geometry" />
        </mxCell>
        <mxCell id="TrK0giv81t1PPJtYDJ1d-2" value="" style="points=[[0.35,0,0],[0.98,0.51,0],[1,0.71,0],[0.67,1,0],[0,0.795,0],[0,0.65,0]];verticalLabelPosition=bottom;sketch=0;html=1;verticalAlign=top;aspect=fixed;align=center;pointerEvents=1;shape=mxgraph.cisco19.user;fillColor=#005073;strokeColor=none;" vertex="1" parent="1">
          <mxGeometry x="230" y="320" width="50" height="50" as="geometry" />
        </mxCell>
        <mxCell id="TrK0giv81t1PPJtYDJ1d-3" value="" style="aspect=fixed;html=1;points=[];align=center;image;fontSize=12;image=img/lib/azure2/blockchain/Consortium.svg;" vertex="1" parent="1">
          <mxGeometry x="630" y="210" width="100" height="100" as="geometry" />
        </mxCell>
        <mxCell id="TrK0giv81t1PPJtYDJ1d-5" value="" style="rounded=0;whiteSpace=wrap;html=1;fillColor=#dae8fc;strokeColor=#6c8ebf;" vertex="1" parent="1">
          <mxGeometry x="540" y="140" width="50" height="220" as="geometry" />
        </mxCell>
        <mxCell id="TrK0giv81t1PPJtYDJ1d-4" value="" style="shape=image;html=1;verticalAlign=top;verticalLabelPosition=bottom;labelBackgroundColor=#ffffff;imageAspect=0;aspect=fixed;image=https://cdn1.iconfinder.com/data/icons/cryptocurrency-blockchain-fintech-free/32/Cryptocurrency_digital_contract-128.png" vertex="1" parent="1">
          <mxGeometry x="546" y="300" width="38" height="38" as="geometry" />
        </mxCell>
        <mxCell id="TrK0giv81t1PPJtYDJ1d-6" value="Code Execution" style="text;html=1;strokeColor=none;fillColor=none;align=center;verticalAlign=middle;whiteSpace=wrap;rounded=0;rotation=-90;fontSize=13;" vertex="1" parent="1">
          <mxGeometry x="510" y="210" width="130" height="30" as="geometry" />
        </mxCell>
        <mxCell id="TrK0giv81t1PPJtYDJ1d-7" value="Smart Contract" style="text;html=1;strokeColor=none;fillColor=none;align=center;verticalAlign=middle;whiteSpace=wrap;rounded=0;rotation=-90;fontStyle=1;fontColor=#007FFF;fontSize=15;" vertex="1" parent="1">
          <mxGeometry x="490" y="210" width="130" height="30" as="geometry" />
        </mxCell>
        <mxCell id="TrK0giv81t1PPJtYDJ1d-9" value="Blockchain Network" style="text;html=1;strokeColor=none;fillColor=none;align=center;verticalAlign=middle;whiteSpace=wrap;rounded=0;rotation=0;fontSize=13;" vertex="1" parent="1">
          <mxGeometry x="615" y="170" width="130" height="30" as="geometry" />
        </mxCell>
        <mxCell id="TrK0giv81t1PPJtYDJ1d-10" value="" style="endArrow=classic;startArrow=classic;html=1;rounded=0;fontSize=13;fontColor=#007FFF;entryX=-0.028;entryY=0.468;entryDx=0;entryDy=0;entryPerimeter=0;exitX=0.25;exitY=1;exitDx=0;exitDy=0;" edge="1" parent="1" source="TrK0giv81t1PPJtYDJ1d-6" target="TrK0giv81t1PPJtYDJ1d-3">
          <mxGeometry width="50" height="50" relative="1" as="geometry">
            <mxPoint x="400" y="340" as="sourcePoint" />
            <mxPoint x="450" y="290" as="targetPoint" />
          </mxGeometry>
        </mxCell>
        <mxCell id="TrK0giv81t1PPJtYDJ1d-11" value="Seller" style="text;html=1;strokeColor=none;fillColor=none;align=center;verticalAlign=middle;whiteSpace=wrap;rounded=0;rotation=0;fontSize=13;" vertex="1" parent="1">
          <mxGeometry x="210" y="170" width="70" height="30" as="geometry" />
        </mxCell>
        <mxCell id="TrK0giv81t1PPJtYDJ1d-12" value="Buyer" style="text;html=1;strokeColor=none;fillColor=none;align=center;verticalAlign=middle;whiteSpace=wrap;rounded=0;rotation=0;fontSize=13;" vertex="1" parent="1">
          <mxGeometry x="210" y="370" width="70" height="30" as="geometry" />
        </mxCell>
        <mxCell id="TrK0giv81t1PPJtYDJ1d-13" value="createAuction()&lt;br&gt;bid()&lt;br&gt;withdraw()&lt;br&gt;cancelAuction()&lt;br&gt;&lt;br&gt;basePrice: IDRD&lt;br&gt;highestBid: IDRD" style="rounded=0;whiteSpace=wrap;html=1;fontSize=13;fillColor=#fff2cc;strokeColor=#d6b656;align=left;spacingLeft=8;spacing=4;spacingTop=0;" vertex="1" parent="1">
          <mxGeometry x="373" y="167" width="130" height="180" as="geometry" />
        </mxCell>
        <mxCell id="TrK0giv81t1PPJtYDJ1d-14" value="" style="endArrow=classic;startArrow=classic;html=1;rounded=0;fontSize=13;fontColor=#007FFF;entryX=0.25;entryY=0;entryDx=0;entryDy=0;exitX=1;exitY=0.5;exitDx=0;exitDy=0;" edge="1" parent="1" source="TrK0giv81t1PPJtYDJ1d-13" target="TrK0giv81t1PPJtYDJ1d-7">
          <mxGeometry width="50" height="50" relative="1" as="geometry">
            <mxPoint x="600" y="267.5" as="sourcePoint" />
            <mxPoint x="637.2" y="266.79999999999995" as="targetPoint" />
          </mxGeometry>
        </mxCell>
        <mxCell id="TrK0giv81t1PPJtYDJ1d-15" value="" style="endArrow=classic;startArrow=classic;html=1;rounded=0;fontSize=13;fontColor=#007FFF;exitX=1;exitY=0.71;exitDx=0;exitDy=0;exitPerimeter=0;entryX=0;entryY=0.25;entryDx=0;entryDy=0;strokeColor=#00CCCC;" edge="1" parent="1" source="TrK0giv81t1PPJtYDJ1d-1" target="TrK0giv81t1PPJtYDJ1d-13">
          <mxGeometry width="50" height="50" relative="1" as="geometry">
            <mxPoint x="400" y="290" as="sourcePoint" />
            <mxPoint x="450" y="240" as="targetPoint" />
          </mxGeometry>
        </mxCell>
        <mxCell id="TrK0giv81t1PPJtYDJ1d-16" value="" style="endArrow=classic;startArrow=classic;html=1;rounded=0;strokeColor=#00FF00;fontSize=13;fontColor=#007FFF;exitX=0.98;exitY=0.51;exitDx=0;exitDy=0;exitPerimeter=0;entryX=0;entryY=0.75;entryDx=0;entryDy=0;" edge="1" parent="1" source="TrK0giv81t1PPJtYDJ1d-2" target="TrK0giv81t1PPJtYDJ1d-13">
          <mxGeometry width="50" height="50" relative="1" as="geometry">
            <mxPoint x="400" y="290" as="sourcePoint" />
            <mxPoint x="450" y="240" as="targetPoint" />
          </mxGeometry>
        </mxCell>
        <mxCell id="TrK0giv81t1PPJtYDJ1d-17" value="IDRD" style="text;html=1;strokeColor=none;fillColor=none;align=center;verticalAlign=middle;whiteSpace=wrap;rounded=0;rotation=0;fontSize=10;" vertex="1" parent="1">
          <mxGeometry x="291" y="180" width="50" height="30" as="geometry" />
        </mxCell>
        <mxCell id="TrK0giv81t1PPJtYDJ1d-18" value="IDRD" style="text;html=1;strokeColor=none;fillColor=none;align=center;verticalAlign=middle;whiteSpace=wrap;rounded=0;rotation=0;fontSize=10;" vertex="1" parent="1">
          <mxGeometry x="297" y="328" width="50" height="30" as="geometry" />
        </mxCell>
        <mxCell id="TrK0giv81t1PPJtYDJ1d-19" value="create()" style="text;html=1;strokeColor=none;fillColor=none;align=center;verticalAlign=middle;whiteSpace=wrap;rounded=0;rotation=0;fontSize=10;" vertex="1" parent="1">
          <mxGeometry x="297" y="149" width="50" height="30" as="geometry" />
        </mxCell>
        <mxCell id="TrK0giv81t1PPJtYDJ1d-20" value="bid()" style="text;html=1;strokeColor=none;fillColor=none;align=center;verticalAlign=middle;whiteSpace=wrap;rounded=0;rotation=0;fontSize=10;" vertex="1" parent="1">
          <mxGeometry x="291" y="300" width="50" height="30" as="geometry" />
        </mxCell>
      </root>
    </mxGraphModel>
  </diagram>
</mxfile>
